<?xml version="1.0" standalone="no"?>
<!DOCTYPE svg PUBLIC "-//W3C//DTD SVG 20010904//EN"
 "http://www.w3.org/TR/2001/REC-SVG-20010904/DTD/svg10.dtd">
<svg version="1.0" xmlns="http://www.w3.org/2000/svg"
 width="1344.000000pt" height="768.000000pt" viewBox="0 0 1344.000000 768.000000"
 preserveAspectRatio="xMidYMid meet">
<g transform="translate(0.000000,768.000000) scale(0.100000,-0.100000)"
fill="#000000" stroke="none">
<path d="M4035 4910 c-20 -8 -55 -44 -55 -56 0 -4 -15 -41 -34 -83 -19 -42
-57 -130 -86 -196 -45 -104 -174 -396 -230 -520 -10 -22 -50 -114 -90 -205
-40 -91 -103 -235 -141 -321 -41 -92 -67 -164 -63 -173 10 -26 38 -36 97 -36
56 0 71 10 110 71 27 45 127 148 188 194 75 57 121 80 210 105 88 24 154 25
234 5 162 -42 271 -125 425 -322 l40 -53 65 0 c58 0 66 3 81 25 19 28 21 20
-81 245 -28 63 -60 134 -70 158 -31 72 -44 82 -113 82 -52 0 -62 -3 -67 -20
-3 -11 -3 -29 0 -40 8 -26 3 -25 -43 3 -34 22 -137 66 -187 81 -141 41 -331
16 -480 -63 -32 -17 -60 -30 -62 -28 -4 5 17 55 72 172 21 44 95 210 166 370
71 159 134 294 139 299 6 6 12 2 16 -10 4 -10 38 -89 77 -174 38 -85 99 -222
134 -305 36 -82 72 -158 81 -167 18 -18 128 -28 150 -14 19 12 14 41 -18 108
-16 35 -62 137 -101 228 -266 613 -277 635 -324 644 -11 2 -29 0 -40 -4z m68
-38 c9 -10 35 -60 58 -112 46 -105 247 -560 314 -712 l43 -98 -68 0 -67 0 -96
218 c-184 420 -222 501 -229 494 -3 -4 -56 -119 -116 -257 -61 -137 -134 -302
-162 -365 -108 -237 -160 -354 -160 -357 0 -1 21 13 47 33 150 115 362 161
543 118 84 -19 198 -76 254 -125 53 -47 62 -49 40 -8 -8 17 -22 49 -29 70
l-14 39 60 0 60 0 38 -82 c134 -290 163 -359 157 -373 -4 -11 -21 -15 -69 -15
l-64 0 -37 56 c-21 31 -75 93 -122 139 -127 125 -277 194 -420 195 -74 0 -197
-34 -272 -76 -79 -45 -212 -171 -267 -253 l-40 -60 -56 -1 c-36 0 -61 5 -68
14 -9 10 20 84 130 332 78 176 193 436 256 579 64 143 147 332 185 420 38 88
76 170 84 183 18 27 64 30 87 4z"/>
<path d="M4828 4891 l-32 -29 1 -422 c1 -308 5 -425 14 -436 8 -9 32 -14 75
-14 51 0 65 4 73 18 15 29 7 831 -8 861 -10 18 -64 51 -86 51 -2 0 -19 -13
-37 -29z m94 -18 c17 -15 18 -42 18 -440 l0 -423 -60 0 -60 0 0 424 c0 373 2
426 16 440 20 21 63 20 86 -1z"/>
<path d="M5919 4891 l-29 -29 0 -420 c0 -482 -6 -452 92 -452 46 0 56 3 67 23
9 16 11 129 9 440 l-3 419 -28 24 c-38 32 -72 31 -108 -5z m100 -15 c6 -7 11
-176 13 -436 l3 -425 -60 0 -60 0 -3 419 c-2 319 1 422 10 433 25 31 75 35 97
9z"/>
<path d="M6539 4912 c-276 -2 -297 -4 -313 -21 -16 -17 -17 -56 -18 -431 0
-343 3 -415 15 -427 18 -18 111 -21 131 -3 14 11 16 58 16 361 l0 349 143 1
c78 0 193 3 256 5 126 5 215 -7 274 -38 61 -31 124 -95 154 -157 24 -48 28
-68 28 -141 0 -71 -4 -94 -27 -142 -34 -73 -103 -142 -176 -176 -53 -25 -68
-27 -222 -30 -151 -3 -167 -5 -187 -25 -36 -32 -30 -76 15 -123 128 -134 609
-590 629 -598 56 -19 122 17 123 69 1 13 -80 99 -246 261 l-247 241 82 16
c133 27 243 94 318 194 15 21 33 43 39 50 6 6 24 50 39 97 25 78 27 95 23 190
-5 94 -9 112 -42 180 -67 139 -193 246 -331 280 -79 20 -127 21 -476 18z m460
-37 c93 -22 173 -69 239 -139 100 -108 138 -216 130 -368 -5 -73 -11 -99 -41
-163 -82 -171 -248 -281 -435 -288 l-62 -2 127 -125 c71 -68 190 -185 266
-259 75 -74 137 -142 137 -151 0 -27 -22 -40 -69 -40 -44 0 -48 3 -155 108
-61 59 -204 198 -318 309 -217 210 -231 229 -190 266 14 13 43 16 152 16 74 0
157 5 185 11 109 25 203 102 253 208 23 49 27 70 27 152 0 84 -3 102 -28 152
-36 73 -119 149 -195 179 -54 22 -72 23 -364 27 l-308 4 0 -366 0 -366 -60 0
-60 0 0 418 c0 230 3 422 7 425 3 4 162 7 352 7 273 0 359 -3 410 -15z"/>
<path d="M9333 4891 c-18 -18 -56 -93 -103 -202 -40 -96 -88 -205 -105 -244
-31 -66 -111 -248 -230 -520 -29 -66 -67 -150 -84 -187 -17 -37 -42 -96 -57
-130 -14 -35 -34 -81 -44 -103 -63 -142 -61 -137 -46 -161 11 -16 27 -23 63
-26 47 -5 113 13 113 29 0 14 78 115 133 171 91 94 207 159 325 183 48 10 80
10 149 1 168 -22 297 -107 442 -291 66 -85 71 -88 116 -93 61 -7 80 -2 96 28
11 21 10 31 -3 67 -21 54 -236 545 -373 852 -59 132 -143 323 -187 425 -81
189 -109 230 -155 230 -12 0 -34 -13 -50 -29z m83 -6 c12 -8 27 -29 34 -47 12
-29 224 -509 384 -868 184 -415 249 -568 250 -595 1 -30 1 -30 -59 -33 l-60
-3 -42 60 c-219 310 -518 409 -797 264 -82 -44 -220 -174 -280 -265 l-37 -58
-58 0 c-73 0 -89 15 -67 59 9 16 65 141 125 278 60 136 162 367 226 513 64
146 157 357 206 470 102 235 123 262 175 225z"/>
<path d="M9377 4664 c-3 -11 -42 -100 -87 -199 -45 -99 -119 -265 -165 -370
-46 -104 -105 -240 -133 -301 l-49 -112 44 34 c232 177 565 177 797 -1 27 -20
46 -33 44 -28 -2 4 -11 24 -20 43 -10 19 -47 103 -84 185 -357 809 -340 772
-347 749z m65 -161 c70 -161 198 -450 267 -603 33 -74 59 -135 57 -137 -1 -2
-27 10 -57 27 -98 54 -200 81 -313 81 -122 1 -201 -18 -310 -72 -44 -21 -80
-38 -82 -37 -1 2 24 62 56 133 32 72 103 231 158 355 146 327 161 360 170 360
4 0 28 -48 54 -107z"/>
<path d="M7555 4890 c-16 -18 -18 -49 -17 -426 0 -349 2 -409 15 -422 13 -13
79 -14 491 -13 261 1 481 4 489 6 7 3 21 19 31 35 20 34 15 63 -17 98 l-20 22
-409 0 -408 0 0 103 c0 56 -1 178 -3 270 -2 93 0 170 4 173 3 2 134 5 290 6
156 1 341 5 412 8 l127 5 20 30 c27 40 25 71 -5 100 l-24 25 -479 0 c-464 0
-479 -1 -497 -20z m986 -21 c15 -15 19 -28 14 -47 -13 -53 2 -52 -449 -54
l-421 -3 -3 -297 -2 -298 417 0 c230 0 423 -4 429 -8 37 -24 36 -91 -1 -106
-9 -3 -230 -6 -491 -6 l-474 0 0 408 c0 304 3 411 12 420 9 9 129 12 480 12
461 0 468 0 489 -21z"/>
<path d="M6253 3902 c-12 -2 -26 -9 -32 -16 -17 -20 -21 -483 -5 -524 22 -54
89 -68 129 -27 l25 24 0 259 c0 311 4 302 -117 284z m95 -284 l-3 -263 -27
-13 c-23 -11 -33 -11 -55 0 l-28 13 -3 263 -2 262 60 0 60 0 -2 -262z"/>
<path d="M7552 3898 c-11 -14 -15 -120 -13 -375 1 -162 2 -173 22 -192 21 -19
37 -20 491 -19 447 1 470 2 494 20 32 26 34 96 3 124 -19 17 -46 18 -426 21
-223 2 -408 5 -410 7 -3 2 -4 92 -3 199 1 192 0 196 -22 211 -27 19 -121 22
-136 4z m129 -224 l-3 -212 124 -5 c68 -3 258 -6 423 -6 295 0 300 0 318 -22
9 -12 17 -27 17 -34 0 -7 -8 -22 -17 -34 -18 -21 -21 -21 -490 -22 -260 0
-477 3 -483 6 -6 4 -10 107 -10 276 l0 270 62 -3 62 -3 -3 -211z"/>
<path d="M4817 3878 c-15 -11 -16 -20 -7 -73 6 -33 30 -98 53 -145 54 -111
183 -245 279 -290 260 -122 533 -79 729 115 93 92 163 223 184 342 8 51 -8 63
-83 63 -60 0 -67 -7 -99 -102 -54 -162 -171 -268 -343 -313 -148 -39 -338 20
-443 138 -43 49 -102 157 -112 207 -11 55 -31 70 -90 70 -28 0 -59 -6 -68 -12z
m109 -14 c16 -4 23 -16 28 -43 10 -63 73 -176 130 -234 67 -67 169 -120 266
-138 153 -27 316 28 428 145 67 69 98 123 122 211 l17 60 61 3 c70 3 69 6 46
-81 -52 -203 -218 -377 -419 -440 -91 -28 -252 -30 -339 -3 -204 61 -378 240
-430 442 -9 34 -16 67 -16 73 0 12 69 15 106 5z"/>
<path d="M5735 3024 c-22 -7 -41 -14 -42 -14 -1 0 -14 -17 -28 -37 -51 -76
-24 -171 59 -211 62 -30 113 -23 161 23 29 26 35 40 35 72 0 24 -6 46 -15 53
-11 9 -12 17 -4 31 30 57 -82 113 -166 83z m137 -42 c17 -16 19 -25 11 -33 -9
-9 -18 -6 -39 10 -26 21 -76 27 -109 15 -19 -8 -45 -55 -45 -83 0 -60 51 -98
116 -88 43 7 64 23 64 48 0 16 -8 19 -45 19 -33 0 -45 4 -45 15 0 12 13 15 60
15 l60 0 0 -39 c0 -54 -43 -91 -106 -91 -85 0 -134 47 -134 131 0 34 6 47 35
76 34 34 38 35 96 31 44 -3 65 -10 81 -26z m-46 -37 c29 -15 24 -21 -25 -27
-13 -2 -29 -11 -35 -21 -9 -15 -7 -22 13 -38 16 -13 31 -17 45 -13 18 6 19 5
7 -10 -19 -23 -70 -20 -98 6 -29 27 -30 71 -1 98 26 24 55 25 94 5z"/>
<path d="M6333 3025 c-50 -22 -76 -60 -81 -119 -6 -71 20 -115 85 -146 40 -19
52 -20 84 -11 131 39 157 167 51 255 -29 25 -103 36 -139 21z m125 -35 c72
-44 80 -133 16 -189 -26 -24 -44 -31 -75 -31 -82 0 -129 45 -129 123 0 42 5
54 34 83 28 28 41 34 78 34 25 0 56 -8 76 -20z"/>
<path d="M6325 2955 c-36 -35 -35 -97 1 -130 51 -48 145 -22 157 42 7 35 -15
88 -41 102 -37 20 -91 13 -117 -14z m105 -10 c17 -9 30 -22 30 -29 0 -8 3 -21
6 -30 9 -23 -40 -66 -73 -66 -38 1 -59 19 -67 57 -6 27 -3 37 18 58 29 29 46
31 86 10z"/>
<path d="M4578 3019 c-10 -5 -18 -16 -18 -24 0 -18 42 -47 61 -43 11 2 15 -19
19 -91 4 -73 9 -96 22 -104 12 -8 21 -7 32 2 12 10 16 33 16 102 0 83 1 89 21
89 49 0 76 39 47 68 -15 15 -175 16 -200 1z m192 -23 c0 -10 -13 -16 -37 -18
l-38 -3 -3 -102 c-2 -83 -6 -103 -17 -103 -12 0 -15 19 -15 105 l0 105 -40 0
c-29 0 -40 4 -40 15 0 12 17 15 95 15 76 0 95 -3 95 -14z"/>
<path d="M4876 3008 c-12 -17 -16 -48 -16 -118 0 -70 4 -101 16 -118 8 -12 19
-22 24 -22 19 0 40 34 40 66 0 34 0 34 45 34 44 0 45 -1 45 -31 0 -63 35 -89
64 -47 12 17 15 46 13 126 -2 88 -5 106 -21 117 -29 22 -56 -1 -56 -47 0 -30
-4 -37 -22 -40 -47 -7 -68 3 -68 31 0 28 -24 71 -40 71 -5 0 -16 -10 -24 -22z
m42 -54 l3 -49 64 0 65 0 0 53 c0 46 3 53 18 50 9 -2 17 -11 16 -21 0 -9 -1
-62 -2 -117 -2 -81 -5 -100 -17 -100 -11 0 -15 12 -15 49 0 55 -9 61 -87 53
l-43 -4 0 -50 c0 -42 -3 -49 -17 -46 -16 3 -18 17 -21 107 -1 58 0 111 3 119
11 29 30 4 33 -44z"/>
<path d="M5208 3016 c-15 -11 -18 -30 -18 -120 0 -146 0 -146 109 -146 69 0
92 4 102 16 24 29 -1 49 -70 52 -52 3 -61 6 -61 22 0 15 9 19 41 22 55 4 74
31 42 58 -16 13 -33 16 -60 13 -26 -3 -35 -2 -28 5 6 6 34 12 64 14 61 3 85
24 65 56 -15 22 -159 29 -186 8z m177 -26 c0 -12 -15 -15 -70 -16 l-70 -1 -3
-32 -3 -31 55 0 c43 0 56 -3 56 -15 0 -11 -13 -15 -53 -15 l-53 0 -1 -40 -2
-40 75 0 c59 0 74 -3 74 -15 0 -12 -17 -15 -90 -15 l-90 0 0 120 0 121 88 -3
c69 -2 87 -6 87 -18z"/>
<path d="M6011 3016 c-7 -9 -12 -57 -13 -127 -1 -140 5 -148 107 -143 73 3 98
16 93 48 -3 18 -12 22 -63 26 l-60 5 -3 90 c-2 70 -6 93 -19 103 -21 15 -28
15 -42 -2z m37 -114 l3 -102 64 0 c51 0 65 -3 65 -15 0 -12 -16 -15 -80 -15
l-80 0 -1 88 c0 48 -2 98 -4 112 -3 30 3 42 18 37 8 -2 13 -39 15 -105z"/>
<path d="M6612 3018 c-18 -18 -15 -38 19 -140 50 -148 84 -164 124 -59 11 28
23 51 26 51 3 0 11 -19 18 -42 7 -24 20 -51 29 -60 36 -42 60 -14 102 120 33
105 33 128 4 139 -22 8 -48 -24 -65 -82 -7 -25 -16 -45 -19 -45 -4 0 -14 24
-23 54 -30 94 -68 100 -97 15 -8 -24 -19 -45 -25 -46 -5 -1 -16 14 -23 34 -12
36 -39 73 -52 73 -3 0 -11 -5 -18 -12z m62 -104 l29 -89 31 89 c17 49 36 91
43 93 6 2 22 -30 38 -79 15 -46 30 -86 34 -90 4 -4 19 33 34 82 18 61 32 90
42 90 8 0 15 -5 15 -10 0 -20 -71 -229 -79 -235 -14 -8 -27 15 -57 105 -16 50
-30 77 -32 65 -2 -11 -15 -53 -29 -93 -18 -51 -30 -72 -41 -70 -16 3 -95 222
-84 233 15 15 29 -8 56 -91z"/>
<path d="M7190 3015 c-9 -11 -5 -36 24 -122 43 -126 59 -152 83 -137 19 12 26
24 49 79 l16 40 28 -62 c47 -102 72 -85 120 77 30 104 31 113 16 128 -24 24
-48 5 -66 -51 -8 -25 -18 -49 -22 -52 -4 -4 -17 16 -29 44 -28 67 -51 80 -78
45 -11 -14 -23 -41 -27 -60 -9 -49 -19 -49 -33 -1 -24 79 -53 106 -81 72z m69
-97 c16 -51 31 -86 34 -78 3 8 15 47 27 85 23 71 35 93 46 83 3 -4 20 -46 39
-94 l33 -88 22 74 c12 41 24 83 26 93 5 17 34 25 34 8 0 -20 -62 -217 -71
-226 -15 -15 -36 19 -64 105 -13 41 -24 73 -25 70 0 -3 -13 -43 -28 -90 -18
-55 -33 -85 -42 -85 -10 0 -28 37 -52 105 -42 119 -44 130 -23 130 9 0 24 -31
44 -92z"/>
<path d="M7631 3016 c-8 -9 -11 -53 -9 -131 3 -97 6 -120 20 -128 12 -8 21 -7
32 2 13 11 16 36 16 132 0 107 -2 119 -19 129 -25 13 -26 13 -40 -4z m39 -126
c0 -100 -2 -120 -15 -120 -12 0 -15 20 -15 120 0 100 3 120 15 120 13 0 15
-20 15 -120z"/>
<path d="M7775 3010 c-22 -24 -9 -45 35 -54 l30 -5 0 -84 c0 -71 3 -87 20
-102 35 -32 49 -6 52 98 3 90 4 92 26 89 46 -7 72 47 33 68 -11 5 -55 10 -99
10 -66 0 -82 -3 -97 -20z m200 -20 c0 -11 -11 -15 -40 -15 l-40 0 -3 -102 c-2
-81 -6 -103 -17 -103 -11 0 -15 22 -17 103 l-3 102 -35 1 c-25 0 -36 5 -38 17
-3 16 6 17 95 15 79 -2 98 -6 98 -18z"/>
<path d="M8082 3018 c-8 -8 -12 -51 -12 -129 0 -94 3 -119 16 -130 24 -20 48
1 54 47 5 39 5 39 50 39 45 0 45 0 50 -39 6 -46 30 -67 54 -47 13 11 16 36 16
131 0 129 -9 152 -49 130 -16 -8 -21 -20 -21 -55 l0 -45 -50 0 -50 0 0 45 c0
34 -5 47 -19 55 -24 13 -24 13 -39 -2z m38 -63 l0 -55 70 0 70 0 0 55 c0 42 3
55 15 55 13 0 15 -20 15 -120 0 -100 -2 -120 -15 -120 -11 0 -15 12 -15 50 l0
50 -70 0 -70 0 0 -50 c0 -38 -4 -50 -15 -50 -12 0 -15 20 -15 120 0 100 3 120
15 120 12 0 15 -13 15 -55z"/>
<path d="M8412 3015 c-20 -23 -12 -244 9 -258 9 -6 24 -7 33 -4 14 5 16 25 16
130 0 120 -6 148 -34 147 -6 -1 -17 -7 -24 -15z m38 -125 c0 -100 -2 -120 -15
-120 -12 0 -15 20 -15 120 0 100 3 120 15 120 13 0 15 -20 15 -120z"/>
<path d="M8587 3019 c-15 -9 -17 -27 -17 -128 0 -96 3 -121 16 -132 29 -24 49
1 52 70 3 70 2 70 70 -21 24 -33 50 -58 60 -58 36 0 42 21 42 141 0 94 -3 119
-16 130 -28 23 -48 -1 -54 -66 l-5 -58 -48 56 c-57 67 -76 79 -100 66z m99
-100 l69 -91 3 91 c2 72 6 91 17 91 12 0 15 -21 15 -120 0 -100 -3 -120 -15
-120 -8 0 -45 41 -82 90 l-68 91 -3 -91 c-2 -71 -6 -90 -17 -90 -12 0 -15 21
-15 120 0 95 3 120 14 120 7 0 44 -41 82 -91z"/>
<path d="M8896 2809 c-18 -27 -11 -47 20 -55 26 -7 54 10 54 32 0 12 -37 44
-52 44 -4 0 -14 -10 -22 -21z m51 -15 c3 -8 1 -20 -6 -27 -14 -14 -47 15 -37
32 10 16 36 13 43 -5z"/>
</g>
</svg>
