<svg xmlns="http://www.w3.org/2000/svg" viewBox="320 265 710 240"><path fill="#ffffff" d="M0 0h1344v768H0z" id="svg-layer-0" style="pointer-events: all;"/><path fill="#DED6CE" d="M939.563 277.875c5.08 2.345 7.127 8.328 9.214 13.254l1.535 3.588.8 1.895c1.432 3.383 2.884 6.758 4.333 10.134l.9 2.1c2.917 6.793 5.931 13.54 8.967 20.279l4.099 9.114q5.128 11.403 10.214 22.824l.987 2.214c6.88 15.465 13.588 31.004 20.27 46.555l1.191 2.772q1.108 2.575 2.212 5.154l.998 2.32.863 2.013a69 69 0 0 0 1.95 3.986c1.143 2.43 1.12 4.27.904 6.923-1.786 1.786-4.067 1.582-6.5 1.813-4.196-.025-5.882-.234-8.98-3.137-2.287-3.16-4.402-6.4-6.52-9.676-11.054-13.982-25.269-23.343-43-26-15.035-1.287-29.706 3.125-41.465 12.703-7.824 6.79-14.664 14.648-19.89 23.625C881 434 881 434 878.082 434.391l-3.27-.141-3.292-.11L869 434c-1.11-1.713-1.11-1.713-2-4 .576-2.181.576-2.181 1.754-4.586l1.319-2.77 1.49-3.019q1.562-3.284 3.117-6.57l1.663-3.501c2.742-5.88 5.29-11.841 7.845-17.804a2845 2845 0 0 1 14.687-33.5l5.08-11.411a10774 10774 0 0 0 11.866-26.72c3.152-7.11 6.253-14.228 9.163-21.44l1.368-3.38q1.23-3.064 2.417-6.146c4.384-10.965 4.384-10.965 10.793-11.278" id="svg-layer-1" style="pointer-events: all;"/><path fill="#C6A990" d="M406.063 278.438c3.324.636 3.865 1.006 5.937 3.562a114 114 0 0 1 2.969 6.195l.837 1.865c.905 2.019 1.8 4.042 2.694 6.065l1.896 4.246q2.378 5.33 4.736 10.667 1.185 2.678 2.372 5.355a4044 4044 0 0 1 7.979 18.15 2712 2712 0 0 0 4.323 9.788q1.962 4.43 3.917 8.862.959 2.17 1.924 4.337 1.345 3.025 2.677 6.056l1.565 3.533C451 370 451 370 451 373h-13c-5.24-11.447-10.432-22.913-15.5-34.437l-1.372-3.117a1673 1673 0 0 1-6.976-16.106l-1.382-3.227q-1.308-3.056-2.598-6.119l-1.176-2.744-1.026-2.422C407 303 407 303 405 302l-.384 2.228c-.58 2.612-1.353 4.707-2.48 7.124l-1.169 2.536-1.28 2.737-2.742 5.953-1.46 3.17c-2.521 5.521-4.969 11.075-7.423 16.627a2160 2160 0 0 1-13.245 29.287A1099 1099 0 0 0 364 396l1 1 1.984-1.355c16.54-10.956 32.82-14.688 52.422-12.215 10.71 2.332 21.015 7.83 29.594 14.57l-1-3.25c-1-3.75-1-3.75-1-7.75h11c5.046 9.824 9.855 19.76 14.563 29.75l1.663 3.462 1.528 3.272 1.385 2.93c.92 2.765.95 3.923-.139 6.586-1.716 1.716-3.842 1.373-6.187 1.5-5.18-.073-5.18-.073-7.56-1.676-1.567-1.86-2.9-3.801-4.253-5.824-11.881-15.372-26.045-28.278-46-31-15.803-1.57-30.297 3.3-42.648 13.102-7.28 6.339-14.146 13.292-19.227 21.523-1.904 2.694-2.632 3.289-5.937 3.867A62 62 0 0 1 337 434c-1.126-1.67-1.126-1.67-2-4 .68-2.466.68-2.466 2.016-5.293l1.515-3.283 1.719-3.611q1.353-2.92 2.698-5.842a1892 1892 0 0 1 1.945-4.209c3.712-8.02 7.245-16.116 10.78-24.214q2.884-6.602 5.78-13.2l1.159-2.642c4.105-9.352 8.26-18.681 12.422-28.007 3.918-8.78 7.79-17.576 11.603-26.402l1.171-2.708q2.818-6.508 5.61-13.027l2.035-4.71.91-2.145c4.95-11.397 4.95-11.397 9.7-12.27" id="svg-layer-2" style="pointer-events: all;"/><path fill="#DED7D0" d="m630.44 278.839 2.041-.015q3.363-.021 6.726-.027l4.685-.017q4.929-.015 9.859-.02c4.181-.006 8.362-.03 12.543-.058 3.234-.019 6.468-.024 9.701-.026q2.31-.004 4.618-.024c16.442-.131 30.518 2.432 42.762 14.223 10.04 10.691 14.262 22.342 14.027 37.024-.231 5.806-1.052 10.794-3.402 16.101l-1.184 2.695C727.07 360.386 717.43 369.688 705 374c-6.581 1.766-13.277 2.92-20 4q4.495 4.536 9 9.063l2.543 2.568c3.721 3.736 7.438 7.42 11.441 10.853 5.015 4.305 9.618 9.01 14.266 13.704l2.68 2.693q2.455 2.468 4.907 4.94a141 141 0 0 0 4.455 4.294L736 428c-.3 4.3-.3 4.3-2 6-3.48.744-6.52.745-10 0-3.743-2.53-6.615-5.714-9.625-9.062a2531 2531 0 0 0-4.79-5.098l-2.354-2.53a83 83 0 0 0-6.036-5.65c-6.498-5.528-12.359-11.77-18.35-17.835a2697 2697 0 0 0-4.876-4.919l-1.576-1.585c-3.46-3.455-7.017-6.729-10.79-9.839-1.848-1.709-3.269-3.343-4.603-5.482.188-3.687.188-3.687 1-7 2.825-1.412 5.25-1.164 8.406-1.21 1.302-.03 2.604-.058 3.946-.087 2.062-.04 4.124-.078 6.186-.104 13.405-.189 24.687-1.717 34.439-11.603 6.986-8.31 9.745-17.05 9.336-27.86-1-10.026-4.828-17.112-12.266-23.925-10.493-8.386-21.939-8.366-34.86-8.309l-3.251.003c-3.979.006-7.957.02-11.936.033L635 292v72h-12q-.034-16.403-.052-32.805-.007-7.616-.023-15.23-.016-7.344-.02-14.687-.003-2.808-.01-5.616-.01-3.918-.009-7.838l-.01-2.369c.013-6.921.814-6.578 7.565-6.616" id="svg-layer-3" style="pointer-events: all;"/><path fill="#ffffff" d="M938 301c2.122 2.681 3.723 5.265 5.137 8.375l1.224 2.68c.22.485.22.485 1.327 2.945l1.423 3.135c6.074 13.414 12.042 26.875 18 40.34q3.116 7.04 6.252 14.072l2.95 6.64 1.326 2.963c2.447 5.531 4.573 11.071 6.361 16.85l-2.02-1.355c-6.432-4.22-12.816-7.827-19.98-10.645l-2.398-.973C943.127 381.12 925.775 382.7 912 389c-5.91 2.938-11.51 6.34-17 10 2.189-7.138 5.06-13.808 8.181-20.585 1.559-3.386 3.101-6.78 4.643-10.173l1.003-2.207c5.044-11.125 9.902-22.334 14.779-33.533A1012 1012 0 0 1 938 301" id="svg-layer-4" style="pointer-events: all;"/><path fill="#DFD8D1" d="m766.792 278.823 2.76-.02q4.533-.028 9.065-.041l3.122-.013q8.177-.03 16.353-.044c5.639-.011 11.277-.046 16.915-.085 4.329-.026 8.657-.035 12.986-.038q3.12-.008 6.237-.035c2.906-.025 5.812-.024 8.719-.017l2.61-.039c3.85.034 5.813.062 9.015 2.343C856 283 856 283 855.875 286.125 855 289 855 289 853 291c-2.709.218-5.318.311-8.03.319l-2.513.03c-2.749.031-5.497.048-8.246.065q-2.855.028-5.709.059c-5.014.051-10.028.09-15.042.128-6.013.047-12.026.109-18.04.168-9.14.088-18.28.158-27.42.231v59l18.27-.105q5.72-.024 11.443-.041c6.057-.018 12.115-.04 18.172-.08 4.882-.033 9.765-.05 14.647-.059a983 983 0 0 0 5.594-.032c2.608-.022 5.215-.025 7.822-.024l2.348-.032c5.226.03 5.226.03 7.656 1.773 1.274 1.944 1.837 3.275 2.048 5.6-.99 2.666-1.428 3.714-4 5-3.02.094-6.019.126-9.04.114h-2.838c-3.106 0-6.211-.009-9.317-.016l-6.449-.005q-8.498-.006-16.995-.024c-6.793-.012-13.587-.017-20.38-.023-10.327-.01-20.654-.029-30.981-.046v-83c3.345-1.673 7.113-1.166 10.792-1.177" id="svg-layer-5" style="pointer-events: all;"/><path fill="#C6AA91" d="M976 394a165 165 0 0 1 5 4l-.945-2.047-1.18-2.703-1.195-2.672c-.68-2.578-.68-2.578.203-4.906L979 384l7 2v-2h2c3.69 3.884 5.585 8.134 7.602 13.004l.977 2.304c1.023 2.415 2.035 4.835 3.046 7.255a6194 6194 0 0 0 3.067 7.265q.952 2.254 1.897 4.51c1.134 2.703 2.265 5.38 3.608 7.986 1.1 2.295 1.006 4.17.803 6.676-1.786 1.786-4.067 1.582-6.5 1.813-4.196-.025-5.882-.234-8.98-3.137-2.287-3.16-4.402-6.4-6.52-9.676-11.054-13.982-25.269-23.343-43-26-15.035-1.287-29.706 3.125-41.465 12.703-7.824 6.79-14.664 14.648-19.89 23.625C881 434 881 434 878.082 434.391l-3.27-.141-3.292-.11L869 434c-1.127-1.674-1.127-1.674-2-4 .703-2.467.703-2.467 2.035-5.219l1.455-3.078c.52-1.057 1.038-2.114 1.572-3.203q1.49-3.108 2.973-6.219l1.505-3.11c1.94-4.215 3.582-8.533 5.184-12.888C883 394 883 394 885.15 393.17L887 393l.813 1.813c1.172 2.16 2.38 3.545 4.187 5.187l1-2 1.695-.39c3.178-.84 5.445-2.546 8.18-4.36 23.1-14.83 50.172-13.647 73.125.75" id="svg-layer-6" style="pointer-events: all;"/><path fill="#DED6CF" d="M405.938 278.688c3.062.312 3.062.312 4.568 1.444 2.007 2.51 3.154 5.127 4.463 8.063l.837 1.865c.905 2.019 1.8 4.042 2.694 6.065l1.896 4.246q2.378 5.33 4.736 10.667 1.185 2.678 2.372 5.355a4044 4044 0 0 1 7.979 18.15 2712 2712 0 0 0 4.323 9.788q1.962 4.43 3.917 8.862.959 2.17 1.924 4.337 1.345 3.025 2.677 6.056l1.565 3.533C451 370 451 370 451 373h-13c-5.24-11.447-10.432-22.913-15.5-34.437l-1.372-3.117a1673 1673 0 0 1-6.976-16.106l-1.382-3.227q-1.308-3.056-2.598-6.119l-1.176-2.744-1.026-2.422C407 303 407 303 405 302l-.384 2.228c-.58 2.612-1.353 4.707-2.48 7.124l-1.169 2.536-1.28 2.737-2.742 5.953-1.46 3.17c-2.521 5.521-4.969 11.075-7.423 16.627a2479 2479 0 0 1-12 26.688l-1.322 2.897A505 505 0 0 1 366 390c-1-2-1-2-1-5l-1.937-.812C361 383 361 383 360 380l-4 8c-1.453-4.358.573-7.212 2.39-11.187l1.127-2.527c1.235-2.766 2.484-5.526 3.733-8.286q1.295-2.89 2.587-5.783 2.703-6.046 5.417-12.088c3.948-8.799 7.835-17.625 11.725-26.45a9903 9903 0 0 1 6.829-15.459q2.742-6.188 5.448-12.391l1.105-2.52q1.04-2.372 2.068-4.748c3.263-7.422 3.263-7.422 7.509-7.873" id="svg-layer-7" style="pointer-events: all;"/><path fill="#D4C1AF" d="M732 311c3.805 2.332 3.805 2.332 4.613 5.102 1.323 9.91 1.485 20.643-2.613 29.898l-1.184 2.695C727.07 360.386 717.43 369.688 705 374c-6.581 1.766-13.277 2.92-20 4q4.495 4.536 9 9.063l2.543 2.568c3.721 3.736 7.438 7.42 11.441 10.853 5.015 4.305 9.618 9.01 14.266 13.704l2.68 2.693q2.455 2.468 4.907 4.94a141 141 0 0 0 4.455 4.294L736 428c-.3 4.3-.3 4.3-2 6-3.48.744-6.52.745-10 0-3.743-2.53-6.615-5.714-9.625-9.062a2531 2531 0 0 0-4.79-5.098l-2.354-2.53a83 83 0 0 0-6.036-5.65c-6.498-5.528-12.359-11.77-18.35-17.835a2697 2697 0 0 0-4.876-4.919l-1.576-1.585c-3.46-3.455-7.017-6.729-10.79-9.839-1.848-1.709-3.269-3.343-4.603-5.482.188-3.687.188-3.687 1-7 2.825-1.412 5.25-1.164 8.406-1.21 1.302-.03 2.604-.058 3.946-.087 2.062-.04 4.124-.078 6.186-.104 13.405-.189 24.687-1.717 34.439-11.603 10.215-12.15 9.542-24.9 9.023-39.996h3v2c1.938-.375 1.938-.375 4-1z" id="svg-layer-8" style="pointer-events: all;"/><path fill="#C6A990" d="m484.96 380.867 2.415.008 2.398-.008C492 381 492 381 495 382c.957 2.59.957 2.59 1.813 5.938C498.656 394.373 501.23 399.5 505 405l1.75 2.688c9.444 9.706 22.045 15.176 35.5 15.625 13.805-.347 25.344-5.09 35.563-14.375 7.253-7.702 11.248-17.91 14.187-27.938h11c2.139 8.555-3.031 18.028-7.32 25.379-9.475 14.785-22.5 24.356-39.617 28.433-16.852 3.21-32.429.249-47.063-8.812-3.619-2.758-6.829-5.743-10-9l-1.887-1.79c-8.116-8.28-14.76-21.534-15.113-33.21 1-1 1-1 2.96-1.133" id="svg-layer-9" style="pointer-events: all;"/><path fill="#C7AB93" d="M756 379h12c1.718 3.436 1.12 7.384 1.098 11.164l-.005 2.75a3563 3563 0 0 1-.03 8.711q-.008 2.949-.014 5.898A7369 7369 0 0 1 769 422l2.519-.007q11.846-.03 23.693-.045 6.089-.007 12.176-.023 5.895-.016 11.788-.02 2.23-.003 4.46-.01c4.79-.018 9.575.01 14.364.105l2.125.038c2.076.05 4.148.128 6.222.218l3.66.138c2.993.606 2.993.606 4.92 2.488C856 427 856 427 855.813 429.625 855 432 855 432 853 434c-3.008.319-3.008.319-6.91.414l-2.14.059c-2.338.061-4.675.107-7.013.152l-4.898.113c-21.183.464-42.36.558-63.539-.175l-3.492-.12-3.164-.127-2.776-.11C757 434 757 434 756 433a88 88 0 0 1-.114-5.07v-3.276l.016-3.564.005-3.628c.005-3.841.018-7.683.03-11.524q.008-3.897.014-7.792.018-9.573.049-19.146" id="svg-layer-10" style="pointer-events: all;"/><path fill="#D4C2AF" d="M766 318h1c.89 7.672 1.066 15.241 1.031 22.957l-.007 2.935q-.008 3.555-.024 7.108l3.169-.02q14.766-.09 29.532-.135c5.062-.016 10.123-.037 15.184-.071 4.882-.033 9.765-.05 14.647-.059a983 983 0 0 0 5.594-.032c2.608-.022 5.215-.025 7.822-.024l2.348-.032c5.226.03 5.226.03 7.656 1.773 1.274 1.944 1.837 3.275 2.048 5.6-.99 2.666-1.428 3.714-4 5-3.02.094-6.019.126-9.04.114h-2.838c-3.106 0-6.211-.009-9.317-.016l-6.449-.005q-8.498-.006-16.995-.024-8.667-.014-17.334-.02-17.013-.016-34.027-.049c-.03-4.23-.047-8.458-.062-12.687l-.026-3.573c-.022-7.961.355-15.812 1.088-23.74l1 2c2.352-.599 4.686-1.27 7-2l1-2-2-1h2z" id="svg-layer-11" style="pointer-events: all;"/><path fill="#D1BCA8" d="M599.563 278.688c2.933 1.579 3.329 2.21 4.437 5.312.185 2.69.263 5.276.243 7.966l.006 2.42c.003 2.636-.007 5.271-.019 7.907v5.491q-.003 5.749-.024 11.497c-.017 4.923-.021 9.846-.02 14.77q-.001 5.665-.013 11.331l-.006 5.448q-.004 3.797-.022 7.593l.002 2.293c-.033 5.17-.033 5.17-1.147 6.284-1.831.099-3.666.13-5.5.125l-3.031.008C592 367 592 367 591 366c-.111-2.6-.157-5.175-.161-7.777l-.015-2.468q-.021-4.062-.027-8.122l-.017-5.624q-.015-5.904-.02-11.808c-.006-5.05-.03-10.1-.058-15.15-.019-3.874-.024-7.748-.026-11.622q-.004-2.793-.024-5.586a864 864 0 0 1-.008-7.807l-.028-2.343c.04-5.194.04-5.194 1.719-7.633 2.668-1.698 4.146-2.2 7.227-1.373" id="svg-layer-12" style="pointer-events: all;"/><path fill="#DFD9D3" d="M491 279c1.666 1.014 1.666 1.014 3 3 .28 2.79.379 5.354.34 8.143l.002 2.514c-.002 2.743-.026 5.486-.049 8.23q-.009 2.852-.013 5.704c-.011 5.006-.04 10.012-.074 15.018-.03 5.107-.044 10.215-.06 15.323A9748 9748 0 0 1 494 367h-12a9923 9923 0 0 1-.155-33.092c-.016-5.122-.037-10.244-.071-15.366-.033-4.94-.05-9.881-.059-14.822q-.008-2.83-.032-5.661a904 904 0 0 1-.024-7.916l-.032-2.376c.03-5.256.03-5.256 1.707-7.753 2.63-1.601 4.666-1.389 7.666-1.014" id="svg-layer-13" style="pointer-events: all;"/><path fill="#D4C2AF" d="M915 322c3.875.875 3.875.875 5 2q3.012-.43 6-1c-.277 8.576-3.5 15.277-7.125 22.938q-1.418 3.053-2.83 6.11-.986 2.137-1.977 4.27c-2.482 5.36-4.874 10.754-7.228 16.17l-1.026 2.355c-1.33 3.054-2.658 6.109-3.975 9.168q-1.371 3.179-2.757 6.348l-1.587 3.671c-1.3 2.583-2.208 4.242-4.495 5.97-2.062 0-2.062 0-4-1-1.25-2.562-1.25-2.562-2-5l-3 1c.68-4.882 2.623-9.048 4.613-13.508l1.11-2.518q1.789-4.052 3.59-8.099l2.454-5.556q3.044-6.887 6.1-13.768 1.581-3.56 3.159-7.12Q909.999 333.207 915 322" id="svg-layer-14" style="pointer-events: all;"/><path fill="#C6A991" d="M886 393c2.248 2.052 3.002 3.007 4 6l2 1 1-2 1.75.625C897 399 897 399 899 398c2.52-1.26 3.351-.662 6 0q2.013-.975 4-2c2.625-.312 2.625-.312 5 0l2 3-1.875.875C912 401 912 401 910 403l-5 4c-8.816 7.486-16.48 15.246-22.36 25.332C881 434 881 434 878.083 434.391l-3.27-.141-3.292-.11L869 434c-1.127-1.674-1.127-1.674-2-4 .703-2.467.703-2.467 2.035-5.219l1.455-3.078c.52-1.057 1.038-2.114 1.572-3.203q1.49-3.108 2.973-6.219l1.5-3.11c1.95-4.224 3.636-8.539 5.287-12.888C883 394 883 394 886 393" id="svg-layer-15" style="pointer-events: all;"/><path fill="#D3BFAC" d="M756 379h12c1.718 3.436 1.12 7.384 1.098 11.164l-.005 2.75a3563 3563 0 0 1-.03 8.711q-.008 2.949-.014 5.898A7369 7369 0 0 1 769 422l2.519-.007q11.846-.03 23.693-.045 6.089-.007 12.176-.023 5.895-.016 11.788-.02 2.23-.003 4.46-.01c4.79-.018 9.575.01 14.364.105l2.125.038c2.076.05 4.148.128 6.222.218l3.66.138c2.993.606 2.993.606 4.928 2.512C856 427 856 427 855.688 429.25L855 431h-1l-2-6a27861 27861 0 0 0-32.989-.443q-7.659-.098-15.318-.205-7.392-.104-14.783-.195-2.82-.036-5.64-.078-3.95-.056-7.9-.1l-2.354-.04c-3.809-.037-7.315.127-11.016 1.061v-2h-2v-3h-3v9h-1z" id="svg-layer-16" style="pointer-events: all;"/><path fill="#D3C0AD" d="m971 391-1 2-9-4v2l-2 2c-.125 2.625-.125 2.625 0 5l2.938.875C965 400 965 400 966 402l-3.687-1.312c-16.536-5.435-31.22-6.914-47.313.562l-2.125 1.078C911 403 911 403 908 402l1.875-.875C912 400 912 400 914 398c-2.49-.687-4.379-1-7-1l-2 2-2.937-.5C899 398 899 398 896 400c2.117-6.017 8.631-8.348 13.993-11.042 19.681-9.389 41.95-8.63 61.007 2.042" id="svg-layer-17" style="pointer-events: all;"/><path fill="#D4C2AF" d="m380 328 1.828 1.953c2.444 2.303 3.891 2.682 7.172 3.047.409 6.477-.706 10.656-3.508 16.453l-1.1 2.368a945 945 0 0 1-3.517 7.429 3270 3270 0 0 0-2.305 4.934c-4.057 8.672-8.227 17.283-12.57 25.816-1-2-1-2-1-5l-1.937-.812C361 383 361 383 360 380l-4 8c-1.154-3.463-.896-3.885.535-7.066l1.095-2.47 1.218-2.671 1.239-2.779c1.316-2.946 2.645-5.886 3.976-8.827q1.305-2.908 2.607-5.818 1.903-4.252 3.811-8.501A1042 1042 0 0 0 380 328M965 333c1.688 1.875 1.688 1.875 3 4l2 3a136 136 0 0 1 1.955 4.1l1.143 2.49 1.218 2.68 1.263 2.768q1.32 2.9 2.635 5.803c1.34 2.953 2.69 5.9 4.042 8.848q1.281 2.822 2.56 5.643l1.225 2.662c1.955 4.342 3.481 8.21 3.959 13.006l-2-4h-2v2l-3.312-.5C979 385 979 385 976 385l-8.862-19.367-4.245-9.277q-.962-2.103-1.915-4.209-1.037-2.275-2.101-4.538l-1.105-2.389-1.01-2.155c-1.163-3.15-1.045-5.742-.762-9.065 3.32-2.09 5.287-2.333 9-1" id="svg-layer-18" style="pointer-events: all;"/><path fill="#C6A990" d="M623 380h12q.074 10.812.11 21.625.015 3.68.04 7.36c.025 3.521.036 7.043.045 10.566l.032 3.333v3.094l.014 2.725C635 431 635 431 633 434c-3.176 1.202-4.507 1.22-7.632-.173C623 432 623 432 622.398 429.665l.034-2.779.002-3.154.078-3.4.021-3.485c.028-3.679.09-7.356.154-11.034q.038-3.738.069-7.475c.055-6.113.141-12.225.244-18.338" id="svg-layer-19" style="pointer-events: all;"/><path fill="#D5C2B0" d="M427 323c4.023 2.846 5.933 5.22 7.867 9.734l1.486 3.409 1.522 3.607 1.585 3.67q1.564 3.621 3.111 7.25a537 537 0 0 0 3.765 8.564l1 2.232a1036 1036 0 0 0 1.785 3.951c1.212 2.739 1.879 4.544 1.879 7.583h-13a5689 5689 0 0 1-8.691-19.123 930 930 0 0 0-3.497-7.584c-3.1-6.742-5.677-12.742-5.812-20.293l2.938-.375L426 325z" id="svg-layer-20" style="pointer-events: all;"/><path fill="#DFD9D3" d="M599.75 278.75C602 280 602 280 603 281c.094 1.902.117 3.808.114 5.713v3.7l-.016 4.028-.005 4.099q-.006 5.403-.024 10.806-.014 5.51-.02 11.02Q603.033 331.18 603 342h-1l-1-18h-2l-1 2h-2v-2h-2l-1 16h-1q-.176-11.46-.26-22.922c-.025-3.549-.06-7.096-.117-10.644-.065-4.078-.09-8.156-.111-12.235l-.078-3.864-.002-3.578-.033-3.156C592 281 592 281 594.364 279.093 597 278 597 278 599.75 278.75" id="svg-layer-21" style="pointer-events: all;"/><path fill="#D4C2AF" d="M634 292h1v72h-12v-44c3 1 3 1 5 3l5-1z" id="svg-layer-22" style="pointer-events: all;"/><path fill="#C6A990" d="M699 400c6.064.126 8.765 2.056 13.105 6.21 1.874 1.77 3.82 3.267 5.895 4.79 4.388 3.56 8.481 7.354 12.418 11.406C732 424 732 424 734.5 426.125c1.5 1.875 1.5 1.875 1.313 4.563C735 433 735 433 734 434c-3.489.77-6.51.767-10 0-3.866-2.637-6.867-5.92-10-9.375l-2.559-2.695a453 453 0 0 1-4.629-4.959A131 131 0 0 0 703 413a208 208 0 0 1-3.062-3.375l-1.598-1.773c-1.424-1.968-1.917-3.48-2.34-5.852h3z" id="svg-layer-23" style="pointer-events: all;"/><path fill="#D5C3B1" d="M482 318h1l1 17 6 1 1-3 1 2 1-5h1v37h-12z" id="svg-layer-24" style="pointer-events: all;"/><path fill="#D3C0AD" d="m484.96 380.867 2.415.008 2.398-.008C492 381 492 381 495 382c.957 2.59.957 2.59 1.813 5.938 1.842 6.438 4.462 11.535 8.187 17.062l1.273 1.95c.894 1.36 1.808 2.707 2.727 4.05l-1.687-.875c-2.398-1.166-4.829-2.159-7.313-3.125v-2h-2v-2l-2.312-.437C493 402 493 402 490 401l4 8h-2c-9.73-18.033-9.73-18.033-10-27 1-1 1-1 2.96-1.133" id="svg-layer-25" style="pointer-events: all;"/><path fill="#C6A990" d="m662 467 3 1a82 82 0 0 1 2.688 7.563l.681 2.154c.555 1.757 1.094 3.52 1.631 5.283l.77-1.977c1.887-4.793 3.83-9.463 6.23-14.023h2l6 16 3-8c1.5-3.937 1.5-3.937 3-7l3-1c-1.295 8.39-4.013 16.089-7 24h-3l-6-16-6 16h-3a985 985 0 0 1-2.937-7.5l-.842-2.11c-1.857-4.832-2.762-9.23-3.221-14.39M721 467h2l1.059 3.246 1.379 4.192.697 2.142c1.752 5.307 1.752 5.307 2.865 6.42l5-15 4 1c1.45 2.906 1.45 2.906 2.688 6.5 2.265 6.453 2.265 6.453 3.312 7.5l.988-3.246 1.324-4.192.647-2.142c.59-1.838 1.308-3.634 2.041-5.42l3-1c-1.353 7.884-3.544 15.394-6 23h-4l-6-15-6 16c-3-1-3-1-3.999-2.902l-.86-2.465-.942-2.684-.949-2.824-.996-2.8c-2.385-6.933-2.385-6.933-1.254-10.325" id="svg-layer-26" style="pointer-events: all;"/><path fill="#C6AA91" d="M586.063 468.25 588 470v4l-6-3c-7.343-.466-7.343-.466-9.937 1.375-2.195 3.356-2.223 5.624-2.063 9.625.5 2.375.5 2.375 1 4 4.014 1.338 7.814 1.2 12 1l3-2v-3l-8-1 1-3h11c.72 7.09.72 7.09-2.375 11-4.191 2.93-8.726 2.867-13.625 2-4.142-2.07-6.265-3.752-8-8-.654-3.786-.843-7.437 1.016-10.883 4.868-6.07 12.078-6.711 19.047-3.867" id="svg-layer-27" style="pointer-events: all;"/><path fill="#D3BFAC" d="M592 381h11c1.124 4.498.631 6.108-.75 10.438l-1.047 3.37c-1.13 3-2.46 5.512-4.203 8.192-1.245-2.49-.777-3.41 0-6l-3 1c-2.687-.937-2.687-.937-5-2l-3 5-1-2c.672-1.848.672-1.848 1.75-4.062 2.132-4.56 3.727-9.141 5.25-13.938" id="svg-layer-28" style="pointer-events: all;"/><path fill="#C6A990" d="M860 467c4.208 1.547 6.047 4.38 8.625 7.938l2.352 3.214A238 238 0 0 1 875 484l1-16 3-1v24c-4.504-1.126-4.504-1.126-6.797-4.09l-1.465-1.877-1.488-1.97-1.535-1.96C864 476.284 864 476.284 864 474h-2v17h-3q-.042-5.719-.062-11.437l-.026-3.3-.01-3.134-.016-2.904C859 468 859 468 860 467M643 467c4.35 2.175 7.262 4.4 9 9 .386 4.092.049 7.48-2.32 10.914-3.139 3.08-5.828 4.48-10.242 4.711-4.371-.313-7.114-1.706-10.438-4.625-2.54-4.186-2.835-8.221-2-13 3.815-6.836 8.685-7.887 16-7m-11 5.063c-2.49 3.656-2.553 5.591-2 9.937 1.188 3.38 1.898 3.932 5 6 4.583.444 6.9.608 10.938-1.625 2.553-2.94 3.062-4.488 3.062-8.375-1.529-3.975-2.428-5.619-6-8-4.905-.554-6.9-.756-11 2.063" id="svg-layer-29" style="pointer-events: all;"/><path fill="#C8AD95" d="M525.598 466.902q2.232.01 4.465.036l2.298.013q2.82.02 5.639.049v4h-13l-1 6h10v3l-9 1v6l14 1v3q-4.22.04-8.437.063l-2.432.025c-2.044.009-4.088-.036-6.131-.088-1.654-1.654-1.13-3.603-1.133-5.875l-.004-2.984.012-3.141-.012-3.14.004-2.985.004-2.758c.223-3.648.916-3.111 4.727-3.215" id="svg-layer-30" style="pointer-events: all;"/><path fill="#C6A990" d="m489 467 3 1v10l12-1 1-9h3v23l-3-1v-9h-13v9l-3 1c-.832-2.905-1.128-5.493-1.133-8.512l-.004-2.545.012-2.63-.012-2.667.004-2.533.004-2.319C488 468 488 468 489 467M810 467l2 1v10h14v-10h3v23l-3-1v-9h-14v10l-3-1q-.042-5.47-.062-10.937l-.026-3.155-.01-2.998-.016-2.777C809 468 809 468 810 467" id="svg-layer-31" style="pointer-events: all;"/><path fill="#D0BBA6" d="M444.406 394.719 446 396l-1 2-2.309-1.426c-12.465-7.517-12.465-7.517-18.691-8.574l-3 1-2-2-2 1-3-2c-2.594-.195-2.594-.195-5.5-.125l-2.906.055L403 386c-3 0-3 0-5-1l-1 2h-10c1-2 1-2 2.739-2.622 19.193-4.141 38.525-1.19 54.667 10.34" id="svg-layer-32" style="pointer-events: all;"/><path fill="#C6A990" d="M459 467h18v3l-8 1v20h-3l-1-20-7-1zM779 467h17l1 3-7 1-1 20-3-1v-19l-8-1z" id="svg-layer-33" style="pointer-events: all;"/><path fill="#C6AA91" d="M602 468h3v20h13v3h-16z" id="svg-layer-34" style="pointer-events: all;"/><path fill="#D1BCA8" d="M586.063 468.25 588 470v4l-6-3c-7.335-.466-7.335-.466-9.875 1.313L571 474l-2 3h-2l-1 4c-.43-4.297-.414-7.012 2.313-10.375 4.88-4.766 11.587-4.89 17.75-2.375" id="svg-layer-35" style="pointer-events: all;"/><path fill="#C6A990" d="M765 467h2v24h-3q-.042-5.719-.062-11.437l-.026-3.3-.01-3.134-.016-2.904C764 468 764 468 765 467M843 467l2 1v23h-3q-.042-5.719-.062-11.437l-.026-3.3-.01-3.134-.016-2.904C842 468 842 468 843 467M521 485h3l1 2c3.16.414 3.16.414 7.063.625l3.91.227L539 488v3q-4.22.04-8.437.063l-2.432.025c-2.044.009-4.088-.036-6.131-.088-1-1-1-1-1.062-3.562z" id="svg-layer-36" style="pointer-events: all;"/><path fill="#CDB5A0" d="M522 467h16v4q-2.874.079-5.75.125l-3.234.07c-2.94-.19-4.54-.668-7.016-2.195z" id="svg-layer-37" style="pointer-events: all;"/><path fill="#CFB8A4" d="M489 467h2v24h-2c-.832-2.905-1.128-5.493-1.133-8.512l-.004-2.545.012-2.63-.012-2.667.004-2.533.004-2.319C488 468 488 468 489 467" id="svg-layer-38" style="pointer-events: all;"/><path fill="#CEB7A2" d="M912 390v2l-1.875.688c-2.74 1.691-3.175 3.304-4.125 6.312l-3.312-.625C899 398 899 398 896 400c1.47-3.801 3.402-5.21 6.875-7.25l2.617-1.578C908 390 908 390 912 390" id="svg-layer-39" style="pointer-events: all;"/><path fill="#CFB9A4" d="M459 467h18v3h-19z" id="svg-layer-40" style="pointer-events: all;"/><path fill="#C7AB93" d="M884 392q2.188-.04 4.375-.062l2.46-.036C893 392 893 392 895 393l-1 7c-2.375-.187-2.375-.187-5-1-1.312-2.562-1.312-2.562-2-5l-3 1z" id="svg-layer-41" style="pointer-events: all;"/><path fill="#CFB8A3" d="M447 387h11c3.223 5.176 3.223 5.176 4 7l-1 3c-3-5.75-3-5.75-3-8h-9l-1 3z" id="svg-layer-42" style="pointer-events: all;"/><path fill="#CCB39C" d="M580 467c5.538.615 5.538.615 7.875 2.563L589 471l-1 3-1.703-.93c-2.36-1.1-4.502-1.671-7.047-2.195l-2.422-.508L575 470v-1l5-1z" id="svg-layer-43" style="pointer-events: all;"/><path fill="#D0BBA6" d="M642 468c3.511.293 4.805.81 7.375 3.313C651 474 651 474 650.75 476.313L650 478h-2c-1.524-2.983-2.94-5.818-4-9z" id="svg-layer-44" style="pointer-events: all;"/><path fill="#C6A990" d="m638.625 466.938 2.477.027L643 467l1 4-12-1v-2c2.405-1.203 3.95-1.1 6.625-1.062" id="svg-layer-45" style="pointer-events: all;"/><path fill="#CBB29C" d="M912 390v2l-1.937.875C908 394 908 394 907 396h-2c.375-2.437.375-2.437 1-5 2-1 2-1 6-1" id="svg-layer-46" style="pointer-events: all;"/><path fill="#D6C4B2" d="m891 393 2 2c-.375 2.625-.375 2.625-1 5l-3-1-1-3z" id="svg-layer-47" style="pointer-events: all;"/><path fill="#C6A990" d="m891 487 4 1-1 3-4-1zM521 468l4 1v2l-2 1c-1.125 2.063-1.125 2.063-2 4z" id="svg-layer-48" style="pointer-events: all;"/><path fill="#CFB9A4" d="M641 467c-3.188 2.125-5.265 2.502-9 3v-2c2.957-1.478 5.742-1.06 9-1" id="svg-layer-49" style="pointer-events: all;"/><path fill="#ffffff" d="m525 470 2 2c-.375 2.625-.375 2.625-1 5h-2c-.043-2-.04-4 0-6z" id="svg-layer-50" style="pointer-events: all;"/><path fill="#D6C4B2" d="m904 394 1 2 2 1-2 2-3-1c1-3 1-3 2-4" id="svg-layer-51" style="pointer-events: all;"/><path fill="#CDB59F" d="M884 392h6l-1 3-3-1-2 1z" id="svg-layer-52" style="pointer-events: all;"/><path fill="#ffffff" d="m365 393 2 3-4 3c.875-4.875.875-4.875 2-6" id="svg-layer-53" style="pointer-events: all;"/><path fill="#D4C0AD" d="m523 480 2 3-1 2-2-1z" id="svg-layer-54" style="pointer-events: all;"/><path fill="#D3C0AD" d="m451 397 3 1-2 3z" id="svg-layer-55" style="pointer-events: all;"/><path fill="#C6A990" d="m906 393 2 2-3 1z" id="svg-layer-56" style="pointer-events: all;"/></svg>